<svg xmlns="http://www.w3.org/2000/svg" width="1856" height="1107" viewBox="0 0 1856 1107" version="1.1"><path d="M 900 122.672 C 841.878 126.835, 787.806 147.805, 744.451 182.997 C 692.306 225.324, 657.285 285.143, 646.093 351 C 642.302 373.305, 642 385.672, 642 518.518 C 642 664.770, 641.442 654.537, 649.884 662.979 C 658.657 671.753, 646.167 671.124, 804.127 670.743 C 955.333 670.379, 946.033 670.697, 973.911 664.942 C 1024.221 654.557, 1073.308 627.825, 1110.447 590.588 C 1164.498 536.392, 1193.403 463.216, 1190.667 387.500 C 1188.122 317.095, 1160.716 253.669, 1111.224 203.651 C 1077.479 169.547, 1037.418 145.861, 990.778 132.436 C 963.806 124.673, 927.135 120.728, 900 122.672 M 1028 317.114 C 1010.220 320.143, 995.445 334.836, 992.021 352.891 C 990.629 360.227, 990.629 537.773, 992.021 545.109 C 994.623 558.833, 1003.780 570.814, 1016.421 577.036 C 1022.551 580.054, 1024.455 580.488, 1033.078 580.834 C 1041.107 581.157, 1043.953 580.846, 1049.315 579.061 C 1061.029 575.163, 1070.681 566.331, 1076.193 554.466 L 1078.500 549.500 1078.500 449 L 1078.500 348.500 1076.180 343.500 C 1067.304 324.375, 1047.865 313.729, 1028 317.114 M 883.754 406.084 C 872.749 408.678, 860.494 418.146, 855.575 427.853 C 850.165 438.528, 850 440.447, 850 492.661 C 850 524.291, 850.384 542.726, 851.115 546.201 C 854.496 562.277, 867.143 575.730, 882.851 579.960 C 885.225 580.599, 890.618 581.112, 894.834 581.100 C 911.965 581.049, 925.856 572.123, 933.812 556.052 L 937.500 548.604 937.500 493.052 L 937.500 437.500 934.390 431 C 928.662 419.030, 919.222 410.693, 907.187 406.976 C 900.444 404.893, 890.423 404.512, 883.754 406.084 M 742.604 494.593 C 719.065 500.289, 704.383 524.855, 710.495 548.320 C 712.566 556.269, 715.081 560.833, 720.900 567.201 C 729.229 576.314, 740.229 581.077, 753.038 581.118 C 785.299 581.220, 806.569 547.787, 792.753 518.694 C 786.841 506.246, 776.270 497.690, 762.913 494.541 C 755.129 492.706, 750.352 492.719, 742.604 494.593 M 1168.778 745.203 C 1159.801 750.407, 1159.738 764.585, 1168.667 770.103 C 1173.386 773.020, 1181.845 772.428, 1185.603 768.917 C 1198.868 756.525, 1184.407 736.143, 1168.778 745.203 M 368 813.500 L 368 878 381 878 L 394 878 394 835.941 C 394 811.607, 394.375 794.114, 394.890 794.432 C 395.380 794.735, 400.217 801.962, 405.639 810.491 L 415.497 826 422.998 825.978 L 430.500 825.956 440.500 810.022 C 446 801.259, 450.837 794.069, 451.250 794.044 C 451.663 794.020, 452 812.913, 452 836.030 L 452 878.060 464.750 877.780 L 477.500 877.500 477.500 813.500 L 477.500 749.500 464.633 749.500 L 451.766 749.500 437.864 771 C 430.217 782.825, 423.575 792.632, 423.102 792.793 C 422.630 792.954, 415.846 783.166, 408.028 771.043 L 393.812 749 380.906 749 L 368 749 368 813.500 M 665.178 750.750 C 663.941 753.175, 625 875.421, 625 876.878 C 625 877.739, 628.695 877.981, 638.714 877.778 L 652.428 877.500 655.377 867.750 L 658.325 858 681.972 858 L 705.619 858 708.573 867.750 L 711.527 877.500 725.264 877.778 C 735.036 877.976, 739 877.728, 739 876.917 C 739 875.480, 700.037 753.121, 698.825 750.750 C 698.029 749.194, 696.163 749, 682 749 C 667.836 749, 665.971 749.194, 665.178 750.750 M 755.618 750.553 C 754.687 752.980, 754.906 875.303, 755.844 876.782 C 756.451 877.739, 759.814 877.993, 769.079 877.782 L 781.500 877.500 781.500 813.500 L 781.500 749.500 768.868 749.221 C 758.010 748.981, 756.149 749.168, 755.618 750.553 M 875.672 749.750 C 875.056 750.785, 835 876.384, 835 877.279 C 835 877.676, 841.245 878, 848.878 878 L 862.756 878 865.549 868 L 868.342 858 892.053 858 L 915.764 858 918.433 866.750 C 919.901 871.563, 921.290 876.063, 921.520 876.750 C 921.826 877.668, 925.533 878, 935.469 878 C 947.351 878, 949 877.800, 949 876.358 C 949 875.454, 940.428 847.892, 929.951 815.108 C 919.474 782.323, 910.440 754.038, 909.874 752.250 L 908.845 749 892.481 749 C 883.482 749, 875.917 749.337, 875.672 749.750 M 1020.667 749.667 C 1020.300 750.033, 1020 759.530, 1020 770.770 L 1020 791.207 1016.605 788.226 C 1010.977 783.285, 1005.357 781.690, 995.267 782.173 C 988.837 782.480, 985.221 783.199, 981.823 784.843 C 971.064 790.052, 963.595 800.087, 960.418 813.603 C 958.418 822.115, 958.976 843.846, 961.387 851.310 C 965.304 863.435, 972.527 872.030, 982.825 876.818 C 987.570 879.024, 989.892 879.454, 997 879.440 C 1006.537 879.421, 1011.153 877.663, 1016.500 872.014 L 1019.500 868.844 1020 873.172 L 1020.500 877.500 1033.250 877.780 L 1046 878.060 1046 813.530 L 1046 749 1033.667 749 C 1026.883 749, 1021.033 749.300, 1020.667 749.667 M 680.658 782.649 C 680.361 783.667, 676.716 796.027, 672.559 810.114 C 668.401 824.202, 665 836.015, 665 836.364 C 665 836.714, 672.680 837, 682.067 837 C 697.855 837, 699.096 836.869, 698.611 835.250 C 688.583 801.722, 682.555 782.322, 681.956 781.649 C 681.539 781.181, 680.955 781.631, 680.658 782.649 M 883.567 807.750 C 879.244 822.462, 875.499 835.063, 875.246 835.750 C 874.889 836.719, 878.652 837, 892.010 837 C 908.478 837, 909.211 836.916, 908.733 835.088 C 906.444 826.335, 892.394 781, 891.970 781 C 891.672 781, 887.890 793.038, 883.567 807.750 M 1232.500 783.409 C 1216.626 787.342, 1208 797.191, 1208 811.381 C 1208 826.729, 1215.873 833.438, 1243.762 841.854 C 1258.643 846.344, 1260.564 847.226, 1261.259 849.884 C 1262.646 855.185, 1255.966 859.996, 1247.218 859.998 C 1238.567 860.001, 1233.034 856.721, 1231.615 850.750 L 1230.962 848 1219.088 848 C 1205.864 848, 1205.676 848.101, 1206.696 854.692 C 1207.591 860.477, 1210.429 865.327, 1215.561 869.845 C 1229.696 882.287, 1262.009 883.029, 1277.442 871.267 C 1284.460 865.917, 1287.454 859.706, 1287.412 850.581 C 1287.339 834.958, 1278.941 828.063, 1250.612 820.367 C 1234.704 816.045, 1232.791 814.929, 1233.199 810.201 C 1233.674 804.674, 1237.429 802.500, 1246.500 802.500 C 1255.020 802.500, 1258.313 804.240, 1261.348 810.346 L 1263.195 814.064 1274.348 813.782 L 1285.500 813.500 1285.820 810.717 C 1286.302 806.515, 1283.342 798.759, 1279.575 794.359 C 1275.527 789.629, 1268.426 785.606, 1260.465 783.533 C 1253.509 781.721, 1239.561 781.659, 1232.500 783.409 M 1330.697 783.448 C 1324.563 785.200, 1315.613 790.581, 1311.966 794.710 C 1303.935 803.804, 1300.649 814.179, 1300.633 830.500 C 1300.606 858.044, 1313.811 875.510, 1337.442 879.184 C 1357.205 882.256, 1375.264 873.422, 1383.458 856.675 C 1389.057 845.231, 1390.491 828.149, 1386.999 814.496 C 1383.410 800.465, 1376.903 792.038, 1365.183 786.246 C 1357.950 782.671, 1357.107 782.492, 1346.554 782.289 C 1339.561 782.154, 1333.735 782.580, 1330.697 783.448 M 1443.500 783.900 C 1441.300 784.921, 1437.925 787.416, 1436 789.445 L 1432.500 793.135 1432 788.317 L 1431.500 783.500 1419 783.500 L 1406.500 783.500 1406.240 830.750 L 1405.980 878 1418.990 878 L 1432 878 1432 850.212 C 1432 823.370, 1432.077 822.273, 1434.250 818.006 C 1437.681 811.268, 1443.234 808.706, 1453.236 809.248 L 1460.972 809.668 1461.598 806.084 C 1461.943 804.113, 1462.849 799.433, 1463.612 795.685 C 1464.376 791.936, 1465 788.010, 1465 786.960 C 1465 782.224, 1451.311 780.276, 1443.500 783.900 M 492.669 783.750 C 492.423 784.163, 499.190 805.623, 507.708 831.440 C 522.723 876.950, 523.156 878.497, 521.926 882.226 C 519.530 889.485, 515.622 891.853, 503 893.697 L 497.500 894.500 497.215 904.750 L 496.930 915 504.715 914.985 C 518.865 914.958, 530.575 910.860, 536.450 903.877 C 537.913 902.138, 540.276 898.417, 541.700 895.607 C 544.559 889.966, 579 787.642, 579 784.788 C 579 783.163, 577.822 783, 566.078 783 L 553.155 783 552.129 786.250 C 551.565 788.038, 548.138 801.200, 544.515 815.500 C 540.891 829.800, 537.541 842.400, 537.069 843.500 C 535.950 846.109, 536.430 847.624, 528.054 815 C 524.171 799.875, 520.555 786.487, 520.018 785.250 C 519.079 783.083, 518.567 783, 506.080 783 C 498.951 783, 492.916 783.337, 492.669 783.750 M 1060.616 783.812 C 1060.118 784.618, 1088.836 874.308, 1090.406 876.848 C 1090.887 877.627, 1095.576 878, 1104.879 878 L 1118.640 878 1133.819 831.300 C 1142.168 805.614, 1148.626 784.226, 1148.169 783.769 C 1147.713 783.313, 1141.319 783.066, 1133.962 783.220 L 1120.584 783.500 1112.892 811.817 C 1108.661 827.391, 1104.961 840.373, 1104.669 840.664 C 1104.027 841.307, 1103.654 840.051, 1095.134 808.500 L 1088.383 783.500 1074.768 783.222 C 1067.279 783.070, 1060.911 783.335, 1060.616 783.812 M 1163.470 784.219 C 1163.200 784.924, 1163.096 806.200, 1163.239 831.500 L 1163.500 877.500 1176.260 877.780 L 1189.020 878.060 1188.760 830.780 L 1188.500 783.500 1176.230 783.219 C 1166.971 783.007, 1163.841 783.252, 1163.470 784.219 M 996 805.779 C 993.750 807.002, 991.442 809.613, 989.537 813.090 C 986.966 817.785, 986.522 819.771, 986.177 828.113 C 985.686 839.961, 987.589 847.489, 992.402 852.742 C 995.360 855.969, 996.334 856.392, 1001.605 856.731 C 1011.601 857.374, 1016.730 852.531, 1019.045 840.264 C 1021.538 827.051, 1017.885 810.592, 1011.537 806.432 C 1007.522 803.802, 1000.205 803.494, 996 805.779 M 1339.500 804.681 C 1335.832 805.694, 1331.978 809.125, 1329.777 813.334 C 1328.038 816.660, 1327.515 819.696, 1327.184 828.393 C 1326.725 840.445, 1327.752 845.589, 1331.649 850.751 C 1338.539 859.878, 1351.966 859.110, 1358.639 849.208 C 1361.549 844.890, 1363.388 833.530, 1362.534 825.155 C 1361.239 812.474, 1355.330 804.965, 1346.208 804.413 C 1343.619 804.257, 1340.600 804.377, 1339.500 804.681 M 590.447 962.059 C 588.222 964.517, 589.412 967.308, 592.907 967.827 C 597.431 968.498, 599.938 963.107, 596.066 961.035 C 593.344 959.578, 592.563 959.720, 590.447 962.059 M 1300.571 961.571 C 1297.694 964.448, 1299.076 968, 1303.072 968 C 1305.530 968, 1308 965.814, 1308 963.637 C 1308 962.592, 1304.793 960, 1303.500 960 C 1302.754 960, 1301.436 960.707, 1300.571 961.571 M 1546.571 961.571 C 1543.694 964.448, 1545.076 968, 1549.072 968 C 1551.530 968, 1554 965.814, 1554 963.637 C 1554 962.592, 1550.793 960, 1549.500 960 C 1548.754 960, 1547.436 960.707, 1546.571 961.571 M 564 962.331 C 564 962.814, 557.124 997.097, 556.495 999.750 C 556.019 1001.758, 556.340 1002, 559.481 1002 C 561.416 1002, 563 1001.851, 563 1001.669 C 563 1001.186, 569.876 966.903, 570.505 964.250 C 570.981 962.242, 570.660 962, 567.519 962 C 565.584 962, 564 962.149, 564 962.331 M 722.636 963.750 C 722.362 964.712, 721.623 968.094, 720.995 971.264 L 719.852 977.029 717.291 975.014 C 713.670 972.166, 706.350 972.289, 701.922 975.274 C 696.470 978.948, 694 983.461, 694 989.748 C 694 994.642, 694.357 995.557, 697.489 998.689 C 700.806 1002.006, 701.263 1002.159, 706.739 1001.779 C 709.908 1001.559, 713.361 1000.992, 714.414 1000.520 C 715.782 999.905, 716.122 999.994, 715.605 1000.830 C 715.107 1001.636, 715.944 1002, 718.296 1002 L 721.709 1002 725.706 982 L 729.703 962 726.419 962 C 724.148 962, 722.981 962.540, 722.636 963.750 M 1191.636 963.750 C 1191.362 964.712, 1190.623 968.094, 1189.995 971.264 L 1188.852 977.029 1186.291 975.014 C 1182.933 972.373, 1176.151 972.372, 1170.974 975.013 C 1165.910 977.596, 1163 983.089, 1163 990.060 C 1163 994.572, 1163.415 995.615, 1166.400 998.600 C 1169.389 1001.589, 1170.424 1002, 1174.966 1002 C 1177.807 1002, 1181.002 1001.534, 1182.066 1000.965 C 1183.399 1000.251, 1184 1000.251, 1184 1000.965 C 1184 1001.534, 1185.510 1002, 1187.355 1002 L 1190.709 1002 1194.706 982 L 1198.703 962 1195.419 962 C 1193.148 962, 1191.981 962.540, 1191.636 963.750 M 1606.505 964.250 C 1605.876 966.903, 1599 1001.186, 1599 1001.669 C 1599 1001.851, 1600.519 1002, 1602.376 1002 L 1605.752 1002 1607.541 992.790 C 1609.692 981.715, 1611.747 979, 1617.976 979 C 1623.805 979, 1624.688 981.382, 1622.600 991.475 C 1620.430 1001.972, 1620.434 1002, 1624.306 1002 L 1627.612 1002 1629.306 993.164 C 1631.632 981.033, 1631.512 979.358, 1628.077 975.923 C 1624.900 972.746, 1619.698 972.024, 1614.426 974.028 C 1612.939 974.593, 1611.593 974.927, 1611.435 974.768 C 1611.277 974.610, 1611.734 971.673, 1612.450 968.240 L 1613.752 962 1610.395 962 C 1607.738 962, 1606.927 962.469, 1606.505 964.250 M 106.500 965.896 C 98.523 969.589, 94 976.980, 94 986.320 C 94 992.641, 96.611 997.284, 101.902 1000.375 C 108.933 1004.481, 125.303 1001.962, 126.513 996.588 C 129.711 982.392, 129.734 982.802, 125.766 983.187 C 122.719 983.482, 122.473 983.806, 121.516 988.791 C 120.957 991.701, 119.825 994.507, 119 995.026 C 118.175 995.545, 115.103 995.976, 112.173 995.985 C 107.560 995.998, 106.438 995.592, 103.803 992.957 C 101.017 990.171, 100.797 989.465, 101.199 984.615 C 101.719 978.346, 104.491 973.944, 109.381 971.623 C 113.971 969.445, 120.771 969.563, 124.580 971.886 C 127.545 973.694, 127.750 973.697, 130.031 971.976 C 132.147 970.381, 132.245 970.001, 130.951 968.439 C 127.122 963.823, 113.939 962.452, 106.500 965.896 M 1689.897 968.250 C 1688.474 970.587, 1682.971 979.138, 1677.668 987.250 L 1668.027 1002 1671.918 1002 C 1675.473 1002, 1676.038 1001.611, 1678.447 997.500 L 1681.084 993 1690.528 993 L 1699.971 993 1701.104 997.500 C 1702.176 1001.757, 1702.426 1002, 1705.726 1002 C 1708.100 1002, 1709.064 1001.601, 1708.745 1000.750 C 1708.487 1000.063, 1706.374 991.513, 1704.050 981.750 L 1699.824 964 1696.155 964 C 1692.911 964, 1692.186 964.492, 1689.897 968.250 M 1729.046 981.250 C 1727.187 990.737, 1725.464 999.288, 1725.217 1000.250 C 1724.850 1001.677, 1725.434 1002, 1728.383 1002 C 1730.373 1002, 1732 1001.851, 1732 1001.669 C 1732 1001.487, 1733.575 993.536, 1735.500 984 C 1737.425 974.464, 1739 966.063, 1739 965.331 C 1739 964.493, 1737.782 964, 1735.713 964 L 1732.425 964 1729.046 981.250 M 196.650 970 C 196.218 972.162, 195.478 973, 194 973 C 192.720 973, 191.584 973.963, 190.975 975.565 C 189.661 979.021, 189.651 979, 192.519 979 C 194.616 979, 194.953 979.377, 194.527 981.250 C 191.379 995.112, 191.323 997.323, 194.051 1000.051 C 195.694 1001.694, 197.134 1002.041, 201.301 1001.801 C 206.100 1001.523, 206.500 1001.308, 206.500 999 C 206.500 996.779, 206.137 996.536, 203.248 996.826 C 198.923 997.259, 198.436 995.670, 200.151 986.724 L 201.537 979.500 205.518 979 C 208.971 978.566, 209.542 978.134, 209.816 975.750 C 210.110 973.195, 209.874 973, 206.487 973 C 202.956 973, 202.862 972.905, 203.500 970 C 204.133 967.118, 204.022 967, 200.704 967 C 197.666 967, 197.178 967.361, 196.650 970 M 1265.665 969.925 C 1265.252 971.990, 1264.407 972.946, 1262.790 973.175 C 1259.596 973.628, 1258.824 979, 1261.953 979 C 1263.600 979, 1263.931 979.473, 1263.527 981.250 C 1260.381 995.104, 1260.338 996.912, 1263.085 999.861 C 1264.816 1001.719, 1266.045 1002.048, 1270.335 1001.799 C 1275.098 1001.523, 1275.500 1001.305, 1275.500 999 C 1275.500 996.931, 1275.069 996.544, 1273 996.757 C 1267.994 997.271, 1267.468 996.011, 1269.063 987.325 L 1270.500 979.500 1274.750 979.193 C 1278.717 978.905, 1279 978.689, 1279 975.943 C 1279 973.250, 1278.704 973, 1275.525 973 C 1272.197 973, 1272.075 972.873, 1272.650 970 C 1273.225 967.124, 1273.106 967, 1269.750 967 C 1266.681 967, 1266.178 967.360, 1265.665 969.925 M 1572.350 970 C 1571.895 972.275, 1571.202 973, 1569.482 973 C 1567.279 973, 1566 974.683, 1566 977.582 C 1566 978.362, 1566.900 979, 1568 979 C 1570.270 979, 1570.363 979.715, 1568.912 986 C 1566.243 997.555, 1568.192 1002.010, 1575.905 1001.985 C 1581.577 1001.966, 1583.095 1001.079, 1582.348 998.224 C 1581.881 996.438, 1581.290 996.140, 1579.230 996.657 C 1574.887 997.747, 1574.042 995.257, 1575.783 986.507 L 1577.276 979 1581.031 979 C 1583.533 979, 1584.989 978.472, 1585.393 977.418 C 1586.716 973.971, 1586.055 973, 1582.387 973 C 1578.940 973, 1578.793 972.861, 1579.213 970 C 1579.628 967.176, 1579.457 967, 1576.302 967 C 1573.378 967, 1572.873 967.383, 1572.350 970 M 1689.666 979.493 C 1687.100 983.651, 1685 987.267, 1685 987.527 C 1685 987.787, 1688.198 988, 1692.107 988 C 1697.382 988, 1699.090 987.678, 1698.734 986.750 C 1698.471 986.063, 1697.676 982.800, 1696.969 979.500 C 1696.262 976.200, 1695.379 973.147, 1695.008 972.716 C 1694.636 972.285, 1692.232 975.334, 1689.666 979.493 M 154.209 974.668 C 144.746 979.331, 142.272 992.519, 149.645 998.993 C 152.640 1001.623, 153.824 1002, 159.084 1002 C 162.520 1002, 166.364 1001.346, 168.050 1000.474 C 171.347 998.769, 171.407 998.630, 169.994 995.988 C 169.051 994.226, 168.756 994.204, 165.313 995.643 C 161.176 997.371, 156.597 996.850, 153.816 994.333 C 149.804 990.702, 151.373 990, 163.500 990 L 175 990 175 986.065 C 175 980.425, 173.517 977.286, 169.775 975.004 C 165.769 972.562, 158.788 972.411, 154.209 974.668 M 254.505 975.250 C 253.876 977.903, 247 1012.186, 247 1012.669 C 247 1012.851, 248.534 1013, 250.409 1013 L 253.818 1013 255.069 1006 C 255.757 1002.150, 256.489 999, 256.695 999 C 256.902 999, 258.183 999.729, 259.542 1000.620 C 261.363 1001.812, 263.594 1002.125, 268.008 1001.806 C 272.929 1001.450, 274.561 1000.847, 277.124 998.436 C 287.443 988.732, 283.246 972.985, 270.346 973.006 C 268.231 973.010, 265.262 973.658, 263.750 974.447 C 261.359 975.694, 261 975.693, 261 974.441 C 261 973.509, 259.948 973, 258.019 973 C 255.752 973, 254.910 973.539, 254.505 975.250 M 305.604 975.209 C 300.540 978.187, 298 983.033, 298 989.719 C 298 994.106, 298.479 995.505, 300.918 998.234 C 303.755 1001.410, 304.059 1001.500, 311.882 1001.500 C 321.099 1001.500, 324.104 999.931, 322.091 996.170 C 321.042 994.209, 320.807 994.183, 317.332 995.635 C 312.779 997.537, 307.608 996.706, 305.529 993.738 C 304.688 992.537, 304 991.205, 304 990.777 C 304 990.350, 309.123 990, 315.383 990 C 325.880 990, 326.807 989.846, 327.283 988.024 C 328.135 984.766, 326.306 978.852, 323.614 976.160 C 319.935 972.480, 311.042 972.011, 305.604 975.209 M 345.126 984.750 C 343.869 991.212, 342.596 997.737, 342.295 999.250 C 341.785 1001.821, 341.973 1002, 345.178 1002 L 348.606 1002 350.276 993.250 C 351.684 985.877, 352.426 984.067, 354.989 981.750 C 356.662 980.237, 359.101 979, 360.409 979 C 362.709 979, 364 977.353, 364 974.418 C 364 972.563, 360.276 972.608, 356.636 974.506 C 353.088 976.356, 352.926 976.356, 353.638 974.500 C 354.080 973.348, 353.425 973, 350.813 973 L 347.412 973 345.126 984.750 M 382.500 974.549 C 378.477 976.611, 377 978.755, 377 982.536 C 377 986.622, 379.225 988.524, 386 990.231 C 390.330 991.321, 391.567 992.075, 391.815 993.773 C 392.247 996.729, 388.148 997.654, 381.133 996.182 C 376.318 995.172, 375.539 995.240, 374.377 996.770 C 373.655 997.722, 373.049 998.793, 373.032 999.152 C 372.967 1000.477, 379.473 1002, 385.199 1002 C 394.194 1002, 399 998.739, 399 992.637 C 399 989.084, 396.659 987.192, 389.956 985.328 C 386.735 984.432, 383.878 983.125, 383.609 982.423 C 382.407 979.290, 388.799 977.630, 395.571 979.316 C 398.234 979.979, 398.792 979.753, 399.764 977.618 C 400.793 975.360, 400.629 975.066, 397.794 974.078 C 393.361 972.533, 385.993 972.760, 382.500 974.549 M 422.753 975.279 C 418.226 978.019, 416.020 980.994, 414.911 985.852 C 413.756 990.911, 415.431 996.343, 419.096 999.427 C 421.670 1001.593, 423.147 1002, 428.429 1002 C 436.186 1002, 440.492 999.479, 443.750 993.030 C 446.372 987.839, 446.541 985.230, 444.560 980.490 C 441.522 973.219, 430.504 970.586, 422.753 975.279 M 465.504 974.250 C 465.266 974.938, 464.124 980.675, 462.967 987 C 461.810 993.325, 460.638 999.288, 460.364 1000.250 C 459.957 1001.678, 460.508 1002, 463.362 1002 C 466.819 1002, 466.871 1001.935, 468.006 996.250 C 470.905 981.717, 472.648 979, 479.066 979 C 485.718 979, 486.039 980.898, 482.411 998.750 C 481.768 1001.914, 481.841 1002, 485.181 1002 L 488.612 1002 490.306 993.164 C 492.632 981.033, 492.512 979.358, 489.077 975.923 C 486.744 973.590, 485.281 973.001, 481.827 973.006 C 479.447 973.010, 476.262 973.658, 474.750 974.447 C 472.359 975.694, 472 975.693, 472 974.441 C 472 972.628, 466.126 972.455, 465.504 974.250 M 517.209 974.611 C 506.794 979.923, 505.117 996.543, 514.561 1000.846 C 517.710 1002.280, 525.480 1002.349, 528.066 1000.965 C 529.399 1000.251, 530 1000.251, 530 1000.965 C 530 1001.534, 531.484 1002, 533.299 1002 L 536.597 1002 538.857 989.633 C 540.101 982.831, 541.369 976.306, 541.676 975.133 C 542.169 973.246, 541.816 973, 538.617 973 C 535.580 973, 535 973.346, 535 975.155 C 535 977.252, 534.946 977.261, 532.985 975.486 C 530.150 972.921, 521.466 972.439, 517.209 974.611 M 586.126 984.750 C 584.869 991.212, 583.596 997.737, 583.295 999.250 C 582.786 1001.820, 582.974 1002, 586.169 1002 L 589.588 1002 591.874 990.250 C 593.131 983.788, 594.404 977.263, 594.705 975.750 C 595.214 973.180, 595.026 973, 591.831 973 L 588.412 973 586.126 984.750 M 612.630 975.250 C 612.299 976.487, 612.021 977.837, 612.014 978.250 C 612.006 978.663, 615.254 979, 619.231 979 L 626.462 979 616.731 988.768 C 611.379 994.140, 607 999.315, 607 1000.268 C 607 1001.818, 608.311 1002, 619.500 1002 C 626.424 1002, 632 1001.590, 632 1001.082 C 632 1000.577, 632.273 999.452, 632.607 998.582 C 633.130 997.218, 632.072 997, 624.917 997 L 616.620 997 626.810 986.645 C 632.415 980.950, 637 975.550, 637 974.645 C 637 973.211, 635.478 973, 625.117 973 C 613.638 973, 613.213 973.077, 612.630 975.250 M 658.209 974.668 C 648.746 979.331, 646.272 992.519, 653.645 998.993 C 656.640 1001.623, 657.824 1002, 663.084 1002 C 666.520 1002, 670.364 1001.346, 672.050 1000.474 C 675.347 998.769, 675.407 998.630, 673.994 995.988 C 673.051 994.226, 672.756 994.204, 669.313 995.643 C 665.176 997.371, 660.597 996.850, 657.816 994.333 C 653.804 990.702, 655.373 990, 667.500 990 L 679 990 679 986.065 C 679 980.425, 677.517 977.286, 673.775 975.004 C 669.769 972.562, 662.788 972.411, 658.209 974.668 M 773 973.292 C 773 973.453, 771.877 979.416, 770.505 986.542 C 769.133 993.669, 768.008 1000.091, 768.005 1000.813 C 768.002 1001.691, 769.066 1002.023, 771.213 1001.813 C 774.377 1001.505, 774.452 1001.376, 776.081 993.500 C 776.991 989.100, 778.075 984.696, 778.489 983.713 C 779.364 981.637, 784.033 979, 786.834 979 C 788.512 979, 789.934 976.632, 789.986 973.750 C 790.010 972.453, 785.028 972.934, 781.950 974.526 C 779.306 975.893, 779 975.893, 779 974.526 C 779 973.497, 778.022 973, 776 973 C 774.350 973, 773 973.132, 773 973.292 M 810.209 974.668 C 800.504 979.451, 798.342 992.903, 806.213 999.526 C 809.139 1001.988, 809.965 1002.170, 816.678 1001.831 C 825.079 1001.407, 827.965 999.671, 826.091 996.170 C 825.040 994.207, 824.811 994.181, 821.313 995.643 C 817.176 997.371, 812.597 996.850, 809.816 994.333 C 805.804 990.702, 807.373 990, 819.500 990 L 831 990 831 985.223 C 831 979.820, 829.251 976.698, 824.989 974.494 C 821.220 972.545, 814.351 972.626, 810.209 974.668 M 855.500 974.357 C 844.696 979.356, 842.501 995.588, 851.967 1000.483 C 857.721 1003.458, 868.303 1001.955, 871.871 997.656 C 872.866 996.456, 872.708 995.909, 871.022 994.728 C 869.179 993.437, 868.508 993.494, 864.969 995.245 C 858.268 998.560, 853 995.814, 853 989.005 C 853 983.228, 856.913 979, 862.260 979 C 864.659 979, 867.098 979.684, 868.175 980.659 C 869.667 982.009, 870.473 982.106, 872.504 981.180 C 875.633 979.754, 875.630 978.941, 872.486 975.987 C 869.390 973.078, 860.174 972.194, 855.500 974.357 M 896.500 975.271 C 891.093 978.296, 887.696 984.826, 888.337 990.966 C 888.705 994.493, 889.556 996.122, 892.387 998.716 C 895.548 1001.612, 896.633 1002, 901.584 1002 C 912.347 1002, 918.087 996.945, 918.819 986.823 C 919.132 982.501, 918.805 980.351, 917.542 978.424 C 913.915 972.889, 903.537 971.334, 896.500 975.271 M 939.639 973.775 C 939.226 974.443, 934 1000.145, 934 1001.507 C 934 1001.778, 935.489 1002, 937.309 1002 L 940.618 1002 942.492 992.772 C 944.663 982.077, 946.862 979, 952.332 979 C 958.682 979, 959.005 981.068, 955.411 998.750 C 954.767 1001.918, 954.837 1002, 958.215 1002 L 961.680 1002 962.955 994.750 C 965.183 982.080, 967.334 979, 973.956 979 C 978.700 979, 979.567 981.966, 977.600 991.475 C 975.401 1002.111, 975.412 1002.184, 979.210 1001.813 C 982.405 1001.501, 982.428 1001.459, 984.249 992.500 C 985.255 987.550, 985.819 982.057, 985.502 980.293 C 984.276 973.473, 975.570 970.886, 967.572 974.963 C 963.746 976.914, 963.706 976.914, 961.226 974.963 C 958.419 972.755, 952.101 972.340, 948.732 974.143 C 947.129 975.001, 946.500 975.001, 946.214 974.143 C 945.789 972.866, 940.388 972.564, 939.639 973.775 M 1007.639 973.775 C 1007.226 974.443, 1002 1000.145, 1002 1001.507 C 1002 1001.778, 1003.519 1002, 1005.376 1002 L 1008.752 1002 1010.541 992.790 C 1012.617 982.100, 1014.818 979, 1020.332 979 C 1026.682 979, 1027.005 981.068, 1023.411 998.750 C 1022.767 1001.918, 1022.837 1002, 1026.215 1002 L 1029.680 1002 1030.955 994.750 C 1033.183 982.080, 1035.334 979, 1041.956 979 C 1046.700 979, 1047.567 981.966, 1045.600 991.475 C 1043.401 1002.111, 1043.412 1002.184, 1047.210 1001.813 C 1050.405 1001.501, 1050.428 1001.459, 1052.249 992.500 C 1053.255 987.550, 1053.819 982.057, 1053.502 980.293 C 1052.276 973.473, 1043.570 970.886, 1035.572 974.963 C 1031.746 976.914, 1031.706 976.914, 1029.226 974.963 C 1026.419 972.755, 1020.101 972.340, 1016.732 974.143 C 1015.129 975.001, 1014.500 975.001, 1014.214 974.143 C 1013.789 972.866, 1008.388 972.564, 1007.639 973.775 M 1079.500 974.403 C 1075.740 976.062, 1073.505 978.547, 1071.538 983.254 C 1068.681 990.092, 1070.478 997.079, 1075.920 1000.294 C 1079.572 1002.451, 1089.034 1002.551, 1093.050 1000.474 C 1096.348 998.769, 1096.514 998.261, 1094.601 995.740 C 1093.383 994.136, 1093.012 994.113, 1090.383 995.484 C 1085.828 997.860, 1080.031 996.994, 1077.765 993.600 C 1075.729 990.550, 1077.064 990.064, 1088.250 989.783 L 1099.500 989.500 1099.807 985.810 C 1100.195 981.136, 1097.810 976.470, 1094.033 974.517 C 1090.455 972.667, 1083.555 972.613, 1079.500 974.403 M 1119.075 978.250 C 1118.488 981.138, 1117.164 987.663, 1116.133 992.750 L 1114.259 1002 1117.562 1002 C 1121.239 1002, 1120.975 1002.502, 1123.477 990.773 C 1125.334 982.071, 1127.931 979, 1133.435 979 C 1139.942 979, 1140.429 982.327, 1136.473 999.750 C 1136.020 1001.746, 1136.350 1002, 1139.398 1002 C 1142.730 1002, 1142.869 1001.841, 1143.988 996.750 C 1145.677 989.067, 1146.352 981.540, 1145.616 978.607 C 1144.374 973.658, 1134.793 971.294, 1128.750 974.447 C 1126.359 975.694, 1126 975.693, 1126 974.441 C 1126 973.514, 1124.954 973, 1123.071 973 C 1120.340 973, 1120.070 973.354, 1119.075 978.250 M 1218.859 975.158 C 1213.872 978.049, 1211 983.468, 1211 989.986 C 1211 994.608, 1211.396 995.596, 1214.489 998.689 C 1217.806 1002.006, 1218.263 1002.159, 1223.739 1001.779 C 1226.908 1001.559, 1230.361 1000.992, 1231.414 1000.520 C 1232.782 999.905, 1233.122 999.994, 1232.605 1000.830 C 1232.105 1001.640, 1232.978 1002, 1235.441 1002 C 1237.398 1002, 1239.002 1001.888, 1239.005 1001.750 C 1239.008 1001.612, 1240.133 995.669, 1241.505 988.542 C 1242.877 981.416, 1244 975.003, 1244 974.292 C 1244 973.514, 1242.769 973, 1240.906 973 C 1238.662 973, 1237.670 973.545, 1237.294 974.984 C 1236.776 976.963, 1236.768 976.963, 1234.253 974.984 C 1230.833 972.294, 1223.657 972.375, 1218.859 975.158 M 1298 973.292 C 1298 973.453, 1296.877 979.416, 1295.505 986.542 C 1294.133 993.669, 1293.008 1000.091, 1293.005 1000.813 C 1293.002 1001.691, 1294.065 1002.023, 1296.209 1001.813 L 1299.418 1001.500 1301.577 990.500 C 1305.438 970.826, 1305.450 973, 1301.475 973 C 1299.564 973, 1298 973.132, 1298 973.292 M 1327.556 975.267 C 1322.224 978.287, 1319.611 983.017, 1319.549 989.761 C 1319.504 994.734, 1319.788 995.414, 1323.235 998.575 C 1326.561 1001.625, 1327.586 1002, 1332.584 1002 C 1343.335 1002, 1350.076 995.947, 1350.151 986.228 C 1350.173 983.476, 1349.669 980.250, 1349.031 979.058 C 1345.794 973.009, 1334.929 971.091, 1327.556 975.267 M 1370.523 974.250 C 1370.295 974.938, 1369.148 980.450, 1367.975 986.500 C 1366.802 992.550, 1365.604 998.513, 1365.313 999.750 C 1364.841 1001.754, 1365.164 1002, 1368.268 1002 L 1371.752 1002 1373.541 992.790 C 1375.692 981.715, 1377.747 979, 1383.976 979 C 1389.805 979, 1390.688 981.382, 1388.600 991.475 C 1386.430 1001.972, 1386.434 1002, 1390.306 1002 L 1393.612 1002 1395.306 993.164 C 1397.632 981.033, 1397.512 979.358, 1394.077 975.923 C 1390.882 972.728, 1385.694 972.025, 1380.336 974.062 C 1378.364 974.812, 1377.437 974.812, 1377.187 974.062 C 1376.691 972.572, 1371.026 972.731, 1370.523 974.250 M 1420.001 974.752 C 1415.663 976.919, 1413.514 981.017, 1414.739 984.785 C 1415.474 987.045, 1416.826 987.890, 1422.811 989.830 C 1430.172 992.215, 1431.712 994.013, 1428.066 995.965 C 1425.368 997.409, 1420.547 997.255, 1416.583 995.599 C 1413.360 994.253, 1413.186 994.296, 1412.078 996.728 C 1411.444 998.120, 1411.054 999.364, 1411.213 999.494 C 1413.262 1001.172, 1417.110 1002, 1422.858 1002 C 1428.851 1002, 1430.269 1001.644, 1432.814 999.503 C 1438.909 994.374, 1437.474 988.013, 1429.754 985.941 C 1422.892 984.099, 1421 983.138, 1421 981.497 C 1421 978.869, 1425.868 977.671, 1431.427 978.930 C 1436.485 980.076, 1437.946 979.474, 1437.985 976.225 C 1438.025 972.881, 1425.756 971.876, 1420.001 974.752 M 1479.010 973.750 C 1479.015 974.163, 1480.140 980.532, 1481.510 987.904 C 1482.879 995.277, 1484 1001.464, 1484 1001.654 C 1484 1001.844, 1485.546 1002, 1487.436 1002 C 1490.737 1002, 1491.091 1001.616, 1496.389 992.295 C 1499.638 986.578, 1502.106 983.187, 1502.394 984.045 C 1502.662 984.845, 1503.376 988.200, 1503.980 991.500 C 1506.004 1002.554, 1505.716 1002, 1509.432 1002 C 1512.720 1002, 1513.018 1001.652, 1519.042 990.750 C 1522.461 984.563, 1526.137 978.038, 1527.211 976.250 L 1529.163 973 1525.822 973 C 1522.612 973, 1522.248 973.420, 1516.508 983.750 L 1510.534 994.500 1508.597 983.699 L 1506.660 972.899 1503.615 973.199 C 1500.899 973.468, 1499.980 974.552, 1495.104 983.250 C 1492.098 988.612, 1489.328 993, 1488.948 993 C 1488.568 993, 1487.945 990.638, 1487.563 987.750 C 1487.181 984.862, 1486.411 980.362, 1485.851 977.750 C 1484.920 973.401, 1484.588 973, 1481.917 973 C 1480.313 973, 1479.004 973.337, 1479.010 973.750 M 1544 973.292 C 1544 973.453, 1542.877 979.416, 1541.505 986.542 C 1540.133 993.669, 1539.008 1000.091, 1539.005 1000.813 C 1539.002 1001.691, 1540.065 1002.023, 1542.209 1001.813 L 1545.418 1001.500 1547.577 990.500 C 1551.438 970.826, 1551.450 973, 1547.475 973 C 1545.564 973, 1544 973.132, 1544 973.292 M 157.500 979.155 C 155.296 980.360, 153 982.930, 153 984.191 C 153 984.636, 156.600 985, 161 985 C 169.893 985, 171.155 983.841, 166.365 980.073 C 163.459 977.787, 160.551 977.486, 157.500 979.155 M 311 978.669 C 309.017 979.443, 305 983.129, 305 984.174 C 305 984.628, 308.600 985, 313 985 C 321.361 985, 322.439 984.314, 319.750 980.705 C 318.395 978.886, 313.414 977.727, 311 978.669 M 661.500 979.155 C 659.296 980.360, 657 982.930, 657 984.191 C 657 984.636, 660.600 985, 665 985 C 673.893 985, 675.155 983.841, 670.365 980.073 C 667.459 977.787, 664.551 977.486, 661.500 979.155 M 813.500 979.155 C 811.296 980.360, 809 982.930, 809 984.191 C 809 984.636, 812.600 985, 817 985 C 822.742 985, 824.996 984.647, 824.985 983.750 C 824.931 979.401, 818.069 976.656, 813.500 979.155 M 1081.250 979.989 C 1075.488 983.502, 1076.909 985, 1086 985 C 1094.893 985, 1096.155 983.841, 1091.365 980.073 C 1088.069 977.480, 1085.402 977.458, 1081.250 979.989 M 261.746 981.527 C 256.910 986.363, 258.089 995.202, 263.736 996.442 C 272.133 998.286, 279.280 988.127, 274.443 981.223 C 272.141 977.935, 265.170 978.102, 261.746 981.527 M 425.252 980.536 C 422.249 982.639, 420.529 988.671, 421.905 992.268 C 423.133 995.476, 427.171 997.341, 431.048 996.489 C 437.506 995.071, 441.345 985.345, 437.116 981.116 C 434.567 978.567, 428.488 978.270, 425.252 980.536 M 518.495 981.414 C 513.689 986.220, 514.131 993.337, 519.391 995.859 C 525.764 998.913, 533.775 992.332, 532.604 985.003 C 531.911 980.663, 529.739 979, 524.763 979 C 522.022 979, 520.212 979.697, 518.495 981.414 M 703.589 982.077 C 701.821 984.178, 701.005 986.318, 701.015 988.827 C 701.033 993.098, 701.651 994.254, 704.809 995.917 C 712.493 999.965, 721.555 988.520, 716.443 981.223 C 715.240 979.504, 713.898 979, 710.532 979 C 706.897 979, 705.750 979.509, 703.589 982.077 M 899.750 980.080 C 897.512 981.383, 895 986.222, 895 989.228 C 895 992.605, 897.566 995.746, 900.928 996.484 C 909.308 998.325, 916.363 986.505, 910.427 980.570 C 908.664 978.806, 902.428 978.520, 899.750 980.080 M 1172.746 981.527 C 1167.910 986.363, 1169.089 995.202, 1174.736 996.442 C 1183.133 998.286, 1190.280 988.127, 1185.443 981.223 C 1183.141 977.935, 1176.170 978.102, 1172.746 981.527 M 1220.589 982.077 C 1218.821 984.178, 1218.005 986.318, 1218.015 988.827 C 1218.033 993.098, 1218.651 994.254, 1221.809 995.917 C 1227.360 998.842, 1235 993.144, 1235 986.078 C 1235 981.202, 1232.592 979, 1227.260 979 C 1223.929 979, 1222.701 979.566, 1220.589 982.077 M 1330.750 980.080 C 1329.787 980.641, 1328.325 982.405, 1327.500 984 C 1324.078 990.618, 1327.036 996.455, 1333.813 996.455 C 1338.553 996.455, 1341.432 994.250, 1343.035 989.395 C 1345.025 983.364, 1342.126 978.981, 1336.179 979.030 C 1334.155 979.047, 1331.712 979.519, 1330.750 980.080" stroke="none" fill="#fbfbfb" fill-rule="evenodd"/><path d="M 0 553.501 L 0 1107.001 928.250 1106.751 L 1856.500 1106.500 1856.751 553.250 L 1857.002 0 928.501 0 L 0 0 0 553.501 M 0.496 554 C 0.496 858.425, 0.611 982.962, 0.750 830.750 C 0.889 678.537, 0.889 429.462, 0.750 277.250 C 0.611 125.037, 0.496 249.575, 0.496 554 M 900 122.672 C 841.878 126.835, 787.806 147.805, 744.451 182.997 C 692.306 225.324, 657.285 285.143, 646.093 351 C 642.302 373.305, 642 385.672, 642 518.518 C 642 664.770, 641.442 654.537, 649.884 662.979 C 658.657 671.753, 646.167 671.124, 804.127 670.743 C 955.333 670.379, 946.033 670.697, 973.911 664.942 C 1024.221 654.557, 1073.308 627.825, 1110.447 590.588 C 1164.498 536.392, 1193.403 463.216, 1190.667 387.500 C 1188.122 317.095, 1160.716 253.669, 1111.224 203.651 C 1077.479 169.547, 1037.418 145.861, 990.778 132.436 C 963.806 124.673, 927.135 120.728, 900 122.672 M 1028 317.114 C 1010.220 320.143, 995.445 334.836, 992.021 352.891 C 990.629 360.227, 990.629 537.773, 992.021 545.109 C 994.623 558.833, 1003.780 570.814, 1016.421 577.036 C 1022.551 580.054, 1024.455 580.488, 1033.078 580.834 C 1041.107 581.157, 1043.953 580.846, 1049.315 579.061 C 1061.029 575.163, 1070.681 566.331, 1076.193 554.466 L 1078.500 549.500 1078.500 449 L 1078.500 348.500 1076.180 343.500 C 1067.304 324.375, 1047.865 313.729, 1028 317.114 M 883.754 406.084 C 872.749 408.678, 860.494 418.146, 855.575 427.853 C 850.165 438.528, 850 440.447, 850 492.661 C 850 524.291, 850.384 542.726, 851.115 546.201 C 854.496 562.277, 867.143 575.730, 882.851 579.960 C 885.225 580.599, 890.618 581.112, 894.834 581.100 C 911.965 581.049, 925.856 572.123, 933.812 556.052 L 937.500 548.604 937.500 493.052 L 937.500 437.500 934.390 431 C 928.662 419.030, 919.222 410.693, 907.187 406.976 C 900.444 404.893, 890.423 404.512, 883.754 406.084 M 742.604 494.593 C 719.065 500.289, 704.383 524.855, 710.495 548.320 C 712.566 556.269, 715.081 560.833, 720.900 567.201 C 729.229 576.314, 740.229 581.077, 753.038 581.118 C 785.299 581.220, 806.569 547.787, 792.753 518.694 C 786.841 506.246, 776.270 497.690, 762.913 494.541 C 755.129 492.706, 750.352 492.719, 742.604 494.593 M 1168.778 745.203 C 1159.801 750.407, 1159.738 764.585, 1168.667 770.103 C 1173.386 773.020, 1181.845 772.428, 1185.603 768.917 C 1198.868 756.525, 1184.407 736.143, 1168.778 745.203 M 368 813.500 L 368 878 381 878 L 394 878 394 835.941 C 394 811.607, 394.375 794.114, 394.890 794.432 C 395.380 794.735, 400.217 801.962, 405.639 810.491 L 415.497 826 422.998 825.978 L 430.500 825.956 440.500 810.022 C 446 801.259, 450.837 794.069, 451.250 794.044 C 451.663 794.020, 452 812.913, 452 836.030 L 452 878.060 464.750 877.780 L 477.500 877.500 477.500 813.500 L 477.500 749.500 464.633 749.500 L 451.766 749.500 437.864 771 C 430.217 782.825, 423.575 792.632, 423.102 792.793 C 422.630 792.954, 415.846 783.166, 408.028 771.043 L 393.812 749 380.906 749 L 368 749 368 813.500 M 665.178 750.750 C 663.941 753.175, 625 875.421, 625 876.878 C 625 877.739, 628.695 877.981, 638.714 877.778 L 652.428 877.500 655.377 867.750 L 658.325 858 681.972 858 L 705.619 858 708.573 867.750 L 711.527 877.500 725.264 877.778 C 735.036 877.976, 739 877.728, 739 876.917 C 739 875.480, 700.037 753.121, 698.825 750.750 C 698.029 749.194, 696.163 749, 682 749 C 667.836 749, 665.971 749.194, 665.178 750.750 M 755.618 750.553 C 754.687 752.980, 754.906 875.303, 755.844 876.782 C 756.451 877.739, 759.814 877.993, 769.079 877.782 L 781.500 877.500 781.500 813.500 L 781.500 749.500 768.868 749.221 C 758.010 748.981, 756.149 749.168, 755.618 750.553 M 875.672 749.750 C 875.056 750.785, 835 876.384, 835 877.279 C 835 877.676, 841.245 878, 848.878 878 L 862.756 878 865.549 868 L 868.342 858 892.053 858 L 915.764 858 918.433 866.750 C 919.901 871.563, 921.290 876.063, 921.520 876.750 C 921.826 877.668, 925.533 878, 935.469 878 C 947.351 878, 949 877.800, 949 876.358 C 949 875.454, 940.428 847.892, 929.951 815.108 C 919.474 782.323, 910.440 754.038, 909.874 752.250 L 908.845 749 892.481 749 C 883.482 749, 875.917 749.337, 875.672 749.750 M 1020.667 749.667 C 1020.300 750.033, 1020 759.530, 1020 770.770 L 1020 791.207 1016.605 788.226 C 1010.977 783.285, 1005.357 781.690, 995.267 782.173 C 988.837 782.480, 985.221 783.199, 981.823 784.843 C 971.064 790.052, 963.595 800.087, 960.418 813.603 C 958.418 822.115, 958.976 843.846, 961.387 851.310 C 965.304 863.435, 972.527 872.030, 982.825 876.818 C 987.570 879.024, 989.892 879.454, 997 879.440 C 1006.537 879.421, 1011.153 877.663, 1016.500 872.014 L 1019.500 868.844 1020 873.172 L 1020.500 877.500 1033.250 877.780 L 1046 878.060 1046 813.530 L 1046 749 1033.667 749 C 1026.883 749, 1021.033 749.300, 1020.667 749.667 M 680.658 782.649 C 680.361 783.667, 676.716 796.027, 672.559 810.114 C 668.401 824.202, 665 836.015, 665 836.364 C 665 836.714, 672.680 837, 682.067 837 C 697.855 837, 699.096 836.869, 698.611 835.250 C 688.583 801.722, 682.555 782.322, 681.956 781.649 C 681.539 781.181, 680.955 781.631, 680.658 782.649 M 883.567 807.750 C 879.244 822.462, 875.499 835.063, 875.246 835.750 C 874.889 836.719, 878.652 837, 892.010 837 C 908.478 837, 909.211 836.916, 908.733 835.088 C 906.444 826.335, 892.394 781, 891.970 781 C 891.672 781, 887.890 793.038, 883.567 807.750 M 1232.500 783.409 C 1216.626 787.342, 1208 797.191, 1208 811.381 C 1208 826.729, 1215.873 833.438, 1243.762 841.854 C 1258.643 846.344, 1260.564 847.226, 1261.259 849.884 C 1262.646 855.185, 1255.966 859.996, 1247.218 859.998 C 1238.567 860.001, 1233.034 856.721, 1231.615 850.750 L 1230.962 848 1219.088 848 C 1205.864 848, 1205.676 848.101, 1206.696 854.692 C 1207.591 860.477, 1210.429 865.327, 1215.561 869.845 C 1229.696 882.287, 1262.009 883.029, 1277.442 871.267 C 1284.460 865.917, 1287.454 859.706, 1287.412 850.581 C 1287.339 834.958, 1278.941 828.063, 1250.612 820.367 C 1234.704 816.045, 1232.791 814.929, 1233.199 810.201 C 1233.674 804.674, 1237.429 802.500, 1246.500 802.500 C 1255.020 802.500, 1258.313 804.240, 1261.348 810.346 L 1263.195 814.064 1274.348 813.782 L 1285.500 813.500 1285.820 810.717 C 1286.302 806.515, 1283.342 798.759, 1279.575 794.359 C 1275.527 789.629, 1268.426 785.606, 1260.465 783.533 C 1253.509 781.721, 1239.561 781.659, 1232.500 783.409 M 1330.697 783.448 C 1324.563 785.200, 1315.613 790.581, 1311.966 794.710 C 1303.935 803.804, 1300.649 814.179, 1300.633 830.500 C 1300.606 858.044, 1313.811 875.510, 1337.442 879.184 C 1357.205 882.256, 1375.264 873.422, 1383.458 856.675 C 1389.057 845.231, 1390.491 828.149, 1386.999 814.496 C 1383.410 800.465, 1376.903 792.038, 1365.183 786.246 C 1357.950 782.671, 1357.107 782.492, 1346.554 782.289 C 1339.561 782.154, 1333.735 782.580, 1330.697 783.448 M 1443.500 783.900 C 1441.300 784.921, 1437.925 787.416, 1436 789.445 L 1432.500 793.135 1432 788.317 L 1431.500 783.500 1419 783.500 L 1406.500 783.500 1406.240 830.750 L 1405.980 878 1418.990 878 L 1432 878 1432 850.212 C 1432 823.370, 1432.077 822.273, 1434.250 818.006 C 1437.681 811.268, 1443.234 808.706, 1453.236 809.248 L 1460.972 809.668 1461.598 806.084 C 1461.943 804.113, 1462.849 799.433, 1463.612 795.685 C 1464.376 791.936, 1465 788.010, 1465 786.960 C 1465 782.224, 1451.311 780.276, 1443.500 783.900 M 492.669 783.750 C 492.423 784.163, 499.190 805.623, 507.708 831.440 C 522.723 876.950, 523.156 878.497, 521.926 882.226 C 519.530 889.485, 515.622 891.853, 503 893.697 L 497.500 894.500 497.215 904.750 L 496.930 915 504.715 914.985 C 518.865 914.958, 530.575 910.860, 536.450 903.877 C 537.913 902.138, 540.276 898.417, 541.700 895.607 C 544.559 889.966, 579 787.642, 579 784.788 C 579 783.163, 577.822 783, 566.078 783 L 553.155 783 552.129 786.250 C 551.565 788.038, 548.138 801.200, 544.515 815.500 C 540.891 829.800, 537.541 842.400, 537.069 843.500 C 535.950 846.109, 536.430 847.624, 528.054 815 C 524.171 799.875, 520.555 786.487, 520.018 785.250 C 519.079 783.083, 518.567 783, 506.080 783 C 498.951 783, 492.916 783.337, 492.669 783.750 M 1060.616 783.812 C 1060.118 784.618, 1088.836 874.308, 1090.406 876.848 C 1090.887 877.627, 1095.576 878, 1104.879 878 L 1118.640 878 1133.819 831.300 C 1142.168 805.614, 1148.626 784.226, 1148.169 783.769 C 1147.713 783.313, 1141.319 783.066, 1133.962 783.220 L 1120.584 783.500 1112.892 811.817 C 1108.661 827.391, 1104.961 840.373, 1104.669 840.664 C 1104.027 841.307, 1103.654 840.051, 1095.134 808.500 L 1088.383 783.500 1074.768 783.222 C 1067.279 783.070, 1060.911 783.335, 1060.616 783.812 M 1163.470 784.219 C 1163.200 784.924, 1163.096 806.200, 1163.239 831.500 L 1163.500 877.500 1176.260 877.780 L 1189.020 878.060 1188.760 830.780 L 1188.500 783.500 1176.230 783.219 C 1166.971 783.007, 1163.841 783.252, 1163.470 784.219 M 996 805.779 C 993.750 807.002, 991.442 809.613, 989.537 813.090 C 986.966 817.785, 986.522 819.771, 986.177 828.113 C 985.686 839.961, 987.589 847.489, 992.402 852.742 C 995.360 855.969, 996.334 856.392, 1001.605 856.731 C 1011.601 857.374, 1016.730 852.531, 1019.045 840.264 C 1021.538 827.051, 1017.885 810.592, 1011.537 806.432 C 1007.522 803.802, 1000.205 803.494, 996 805.779 M 1339.500 804.681 C 1335.832 805.694, 1331.978 809.125, 1329.777 813.334 C 1328.038 816.660, 1327.515 819.696, 1327.184 828.393 C 1326.725 840.445, 1327.752 845.589, 1331.649 850.751 C 1338.539 859.878, 1351.966 859.110, 1358.639 849.208 C 1361.549 844.890, 1363.388 833.530, 1362.534 825.155 C 1361.239 812.474, 1355.330 804.965, 1346.208 804.413 C 1343.619 804.257, 1340.600 804.377, 1339.500 804.681 M 590.447 962.059 C 588.222 964.517, 589.412 967.308, 592.907 967.827 C 597.431 968.498, 599.938 963.107, 596.066 961.035 C 593.344 959.578, 592.563 959.720, 590.447 962.059 M 1300.571 961.571 C 1297.694 964.448, 1299.076 968, 1303.072 968 C 1305.530 968, 1308 965.814, 1308 963.637 C 1308 962.592, 1304.793 960, 1303.500 960 C 1302.754 960, 1301.436 960.707, 1300.571 961.571 M 1546.571 961.571 C 1543.694 964.448, 1545.076 968, 1549.072 968 C 1551.530 968, 1554 965.814, 1554 963.637 C 1554 962.592, 1550.793 960, 1549.500 960 C 1548.754 960, 1547.436 960.707, 1546.571 961.571 M 564 962.331 C 564 962.814, 557.124 997.097, 556.495 999.750 C 556.019 1001.758, 556.340 1002, 559.481 1002 C 561.416 1002, 563 1001.851, 563 1001.669 C 563 1001.186, 569.876 966.903, 570.505 964.250 C 570.981 962.242, 570.660 962, 567.519 962 C 565.584 962, 564 962.149, 564 962.331 M 722.636 963.750 C 722.362 964.712, 721.623 968.094, 720.995 971.264 L 719.852 977.029 717.291 975.014 C 713.670 972.166, 706.350 972.289, 701.922 975.274 C 696.470 978.948, 694 983.461, 694 989.748 C 694 994.642, 694.357 995.557, 697.489 998.689 C 700.806 1002.006, 701.263 1002.159, 706.739 1001.779 C 709.908 1001.559, 713.361 1000.992, 714.414 1000.520 C 715.782 999.905, 716.122 999.994, 715.605 1000.830 C 715.107 1001.636, 715.944 1002, 718.296 1002 L 721.709 1002 725.706 982 L 729.703 962 726.419 962 C 724.148 962, 722.981 962.540, 722.636 963.750 M 1191.636 963.750 C 1191.362 964.712, 1190.623 968.094, 1189.995 971.264 L 1188.852 977.029 1186.291 975.014 C 1182.933 972.373, 1176.151 972.372, 1170.974 975.013 C 1165.910 977.596, 1163 983.089, 1163 990.060 C 1163 994.572, 1163.415 995.615, 1166.400 998.600 C 1169.389 1001.589, 1170.424 1002, 1174.966 1002 C 1177.807 1002, 1181.002 1001.534, 1182.066 1000.965 C 1183.399 1000.251, 1184 1000.251, 1184 1000.965 C 1184 1001.534, 1185.510 1002, 1187.355 1002 L 1190.709 1002 1194.706 982 L 1198.703 962 1195.419 962 C 1193.148 962, 1191.981 962.540, 1191.636 963.750 M 1606.505 964.250 C 1605.876 966.903, 1599 1001.186, 1599 1001.669 C 1599 1001.851, 1600.519 1002, 1602.376 1002 L 1605.752 1002 1607.541 992.790 C 1609.692 981.715, 1611.747 979, 1617.976 979 C 1623.805 979, 1624.688 981.382, 1622.600 991.475 C 1620.430 1001.972, 1620.434 1002, 1624.306 1002 L 1627.612 1002 1629.306 993.164 C 1631.632 981.033, 1631.512 979.358, 1628.077 975.923 C 1624.900 972.746, 1619.698 972.024, 1614.426 974.028 C 1612.939 974.593, 1611.593 974.927, 1611.435 974.768 C 1611.277 974.610, 1611.734 971.673, 1612.450 968.240 L 1613.752 962 1610.395 962 C 1607.738 962, 1606.927 962.469, 1606.505 964.250 M 106.500 965.896 C 98.523 969.589, 94 976.980, 94 986.320 C 94 992.641, 96.611 997.284, 101.902 1000.375 C 108.933 1004.481, 125.303 1001.962, 126.513 996.588 C 129.711 982.392, 129.734 982.802, 125.766 983.187 C 122.719 983.482, 122.473 983.806, 121.516 988.791 C 120.957 991.701, 119.825 994.507, 119 995.026 C 118.175 995.545, 115.103 995.976, 112.173 995.985 C 107.560 995.998, 106.438 995.592, 103.803 992.957 C 101.017 990.171, 100.797 989.465, 101.199 984.615 C 101.719 978.346, 104.491 973.944, 109.381 971.623 C 113.971 969.445, 120.771 969.563, 124.580 971.886 C 127.545 973.694, 127.750 973.697, 130.031 971.976 C 132.147 970.381, 132.245 970.001, 130.951 968.439 C 127.122 963.823, 113.939 962.452, 106.500 965.896 M 1689.897 968.250 C 1688.474 970.587, 1682.971 979.138, 1677.668 987.250 L 1668.027 1002 1671.918 1002 C 1675.473 1002, 1676.038 1001.611, 1678.447 997.500 L 1681.084 993 1690.528 993 L 1699.971 993 1701.104 997.500 C 1702.176 1001.757, 1702.426 1002, 1705.726 1002 C 1708.100 1002, 1709.064 1001.601, 1708.745 1000.750 C 1708.487 1000.063, 1706.374 991.513, 1704.050 981.750 L 1699.824 964 1696.155 964 C 1692.911 964, 1692.186 964.492, 1689.897 968.250 M 1729.046 981.250 C 1727.187 990.737, 1725.464 999.288, 1725.217 1000.250 C 1724.850 1001.677, 1725.434 1002, 1728.383 1002 C 1730.373 1002, 1732 1001.851, 1732 1001.669 C 1732 1001.487, 1733.575 993.536, 1735.500 984 C 1737.425 974.464, 1739 966.063, 1739 965.331 C 1739 964.493, 1737.782 964, 1735.713 964 L 1732.425 964 1729.046 981.250 M 196.650 970 C 196.218 972.162, 195.478 973, 194 973 C 192.720 973, 191.584 973.963, 190.975 975.565 C 189.661 979.021, 189.651 979, 192.519 979 C 194.616 979, 194.953 979.377, 194.527 981.250 C 191.379 995.112, 191.323 997.323, 194.051 1000.051 C 195.694 1001.694, 197.134 1002.041, 201.301 1001.801 C 206.100 1001.523, 206.500 1001.308, 206.500 999 C 206.500 996.779, 206.137 996.536, 203.248 996.826 C 198.923 997.259, 198.436 995.670, 200.151 986.724 L 201.537 979.500 205.518 979 C 208.971 978.566, 209.542 978.134, 209.816 975.750 C 210.110 973.195, 209.874 973, 206.487 973 C 202.956 973, 202.862 972.905, 203.500 970 C 204.133 967.118, 204.022 967, 200.704 967 C 197.666 967, 197.178 967.361, 196.650 970 M 1265.665 969.925 C 1265.252 971.990, 1264.407 972.946, 1262.790 973.175 C 1259.596 973.628, 1258.824 979, 1261.953 979 C 1263.600 979, 1263.931 979.473, 1263.527 981.250 C 1260.381 995.104, 1260.338 996.912, 1263.085 999.861 C 1264.816 1001.719, 1266.045 1002.048, 1270.335 1001.799 C 1275.098 1001.523, 1275.500 1001.305, 1275.500 999 C 1275.500 996.931, 1275.069 996.544, 1273 996.757 C 1267.994 997.271, 1267.468 996.011, 1269.063 987.325 L 1270.500 979.500 1274.750 979.193 C 1278.717 978.905, 1279 978.689, 1279 975.943 C 1279 973.250, 1278.704 973, 1275.525 973 C 1272.197 973, 1272.075 972.873, 1272.650 970 C 1273.225 967.124, 1273.106 967, 1269.750 967 C 1266.681 967, 1266.178 967.360, 1265.665 969.925 M 1572.350 970 C 1571.895 972.275, 1571.202 973, 1569.482 973 C 1567.279 973, 1566 974.683, 1566 977.582 C 1566 978.362, 1566.900 979, 1568 979 C 1570.270 979, 1570.363 979.715, 1568.912 986 C 1566.243 997.555, 1568.192 1002.010, 1575.905 1001.985 C 1581.577 1001.966, 1583.095 1001.079, 1582.348 998.224 C 1581.881 996.438, 1581.290 996.140, 1579.230 996.657 C 1574.887 997.747, 1574.042 995.257, 1575.783 986.507 L 1577.276 979 1581.031 979 C 1583.533 979, 1584.989 978.472, 1585.393 977.418 C 1586.716 973.971, 1586.055 973, 1582.387 973 C 1578.940 973, 1578.793 972.861, 1579.213 970 C 1579.628 967.176, 1579.457 967, 1576.302 967 C 1573.378 967, 1572.873 967.383, 1572.350 970 M 1689.666 979.493 C 1687.100 983.651, 1685 987.267, 1685 987.527 C 1685 987.787, 1688.198 988, 1692.107 988 C 1697.382 988, 1699.090 987.678, 1698.734 986.750 C 1698.471 986.063, 1697.676 982.800, 1696.969 979.500 C 1696.262 976.200, 1695.379 973.147, 1695.008 972.716 C 1694.636 972.285, 1692.232 975.334, 1689.666 979.493 M 154.209 974.668 C 144.746 979.331, 142.272 992.519, 149.645 998.993 C 152.640 1001.623, 153.824 1002, 159.084 1002 C 162.520 1002, 166.364 1001.346, 168.050 1000.474 C 171.347 998.769, 171.407 998.630, 169.994 995.988 C 169.051 994.226, 168.756 994.204, 165.313 995.643 C 161.176 997.371, 156.597 996.850, 153.816 994.333 C 149.804 990.702, 151.373 990, 163.500 990 L 175 990 175 986.065 C 175 980.425, 173.517 977.286, 169.775 975.004 C 165.769 972.562, 158.788 972.411, 154.209 974.668 M 254.505 975.250 C 253.876 977.903, 247 1012.186, 247 1012.669 C 247 1012.851, 248.534 1013, 250.409 1013 L 253.818 1013 255.069 1006 C 255.757 1002.150, 256.489 999, 256.695 999 C 256.902 999, 258.183 999.729, 259.542 1000.620 C 261.363 1001.812, 263.594 1002.125, 268.008 1001.806 C 272.929 1001.450, 274.561 1000.847, 277.124 998.436 C 287.443 988.732, 283.246 972.985, 270.346 973.006 C 268.231 973.010, 265.262 973.658, 263.750 974.447 C 261.359 975.694, 261 975.693, 261 974.441 C 261 973.509, 259.948 973, 258.019 973 C 255.752 973, 254.910 973.539, 254.505 975.250 M 305.604 975.209 C 300.540 978.187, 298 983.033, 298 989.719 C 298 994.106, 298.479 995.505, 300.918 998.234 C 303.755 1001.410, 304.059 1001.500, 311.882 1001.500 C 321.099 1001.500, 324.104 999.931, 322.091 996.170 C 321.042 994.209, 320.807 994.183, 317.332 995.635 C 312.779 997.537, 307.608 996.706, 305.529 993.738 C 304.688 992.537, 304 991.205, 304 990.777 C 304 990.350, 309.123 990, 315.383 990 C 325.880 990, 326.807 989.846, 327.283 988.024 C 328.135 984.766, 326.306 978.852, 323.614 976.160 C 319.935 972.480, 311.042 972.011, 305.604 975.209 M 345.126 984.750 C 343.869 991.212, 342.596 997.737, 342.295 999.250 C 341.785 1001.821, 341.973 1002, 345.178 1002 L 348.606 1002 350.276 993.250 C 351.684 985.877, 352.426 984.067, 354.989 981.750 C 356.662 980.237, 359.101 979, 360.409 979 C 362.709 979, 364 977.353, 364 974.418 C 364 972.563, 360.276 972.608, 356.636 974.506 C 353.088 976.356, 352.926 976.356, 353.638 974.500 C 354.080 973.348, 353.425 973, 350.813 973 L 347.412 973 345.126 984.750 M 382.500 974.549 C 378.477 976.611, 377 978.755, 377 982.536 C 377 986.622, 379.225 988.524, 386 990.231 C 390.330 991.321, 391.567 992.075, 391.815 993.773 C 392.247 996.729, 388.148 997.654, 381.133 996.182 C 376.318 995.172, 375.539 995.240, 374.377 996.770 C 373.655 997.722, 373.049 998.793, 373.032 999.152 C 372.967 1000.477, 379.473 1002, 385.199 1002 C 394.194 1002, 399 998.739, 399 992.637 C 399 989.084, 396.659 987.192, 389.956 985.328 C 386.735 984.432, 383.878 983.125, 383.609 982.423 C 382.407 979.290, 388.799 977.630, 395.571 979.316 C 398.234 979.979, 398.792 979.753, 399.764 977.618 C 400.793 975.360, 400.629 975.066, 397.794 974.078 C 393.361 972.533, 385.993 972.760, 382.500 974.549 M 422.753 975.279 C 418.226 978.019, 416.020 980.994, 414.911 985.852 C 413.756 990.911, 415.431 996.343, 419.096 999.427 C 421.670 1001.593, 423.147 1002, 428.429 1002 C 436.186 1002, 440.492 999.479, 443.750 993.030 C 446.372 987.839, 446.541 985.230, 444.560 980.490 C 441.522 973.219, 430.504 970.586, 422.753 975.279 M 465.504 974.250 C 465.266 974.938, 464.124 980.675, 462.967 987 C 461.810 993.325, 460.638 999.288, 460.364 1000.250 C 459.957 1001.678, 460.508 1002, 463.362 1002 C 466.819 1002, 466.871 1001.935, 468.006 996.250 C 470.905 981.717, 472.648 979, 479.066 979 C 485.718 979, 486.039 980.898, 482.411 998.750 C 481.768 1001.914, 481.841 1002, 485.181 1002 L 488.612 1002 490.306 993.164 C 492.632 981.033, 492.512 979.358, 489.077 975.923 C 486.744 973.590, 485.281 973.001, 481.827 973.006 C 479.447 973.010, 476.262 973.658, 474.750 974.447 C 472.359 975.694, 472 975.693, 472 974.441 C 472 972.628, 466.126 972.455, 465.504 974.250 M 517.209 974.611 C 506.794 979.923, 505.117 996.543, 514.561 1000.846 C 517.710 1002.280, 525.480 1002.349, 528.066 1000.965 C 529.399 1000.251, 530 1000.251, 530 1000.965 C 530 1001.534, 531.484 1002, 533.299 1002 L 536.597 1002 538.857 989.633 C 540.101 982.831, 541.369 976.306, 541.676 975.133 C 542.169 973.246, 541.816 973, 538.617 973 C 535.580 973, 535 973.346, 535 975.155 C 535 977.252, 534.946 977.261, 532.985 975.486 C 530.150 972.921, 521.466 972.439, 517.209 974.611 M 586.126 984.750 C 584.869 991.212, 583.596 997.737, 583.295 999.250 C 582.786 1001.820, 582.974 1002, 586.169 1002 L 589.588 1002 591.874 990.250 C 593.131 983.788, 594.404 977.263, 594.705 975.750 C 595.214 973.180, 595.026 973, 591.831 973 L 588.412 973 586.126 984.750 M 612.630 975.250 C 612.299 976.487, 612.021 977.837, 612.014 978.250 C 612.006 978.663, 615.254 979, 619.231 979 L 626.462 979 616.731 988.768 C 611.379 994.140, 607 999.315, 607 1000.268 C 607 1001.818, 608.311 1002, 619.500 1002 C 626.424 1002, 632 1001.590, 632 1001.082 C 632 1000.577, 632.273 999.452, 632.607 998.582 C 633.130 997.218, 632.072 997, 624.917 997 L 616.620 997 626.810 986.645 C 632.415 980.950, 637 975.550, 637 974.645 C 637 973.211, 635.478 973, 625.117 973 C 613.638 973, 613.213 973.077, 612.630 975.250 M 658.209 974.668 C 648.746 979.331, 646.272 992.519, 653.645 998.993 C 656.640 1001.623, 657.824 1002, 663.084 1002 C 666.520 1002, 670.364 1001.346, 672.050 1000.474 C 675.347 998.769, 675.407 998.630, 673.994 995.988 C 673.051 994.226, 672.756 994.204, 669.313 995.643 C 665.176 997.371, 660.597 996.850, 657.816 994.333 C 653.804 990.702, 655.373 990, 667.500 990 L 679 990 679 986.065 C 679 980.425, 677.517 977.286, 673.775 975.004 C 669.769 972.562, 662.788 972.411, 658.209 974.668 M 773 973.292 C 773 973.453, 771.877 979.416, 770.505 986.542 C 769.133 993.669, 768.008 1000.091, 768.005 1000.813 C 768.002 1001.691, 769.066 1002.023, 771.213 1001.813 C 774.377 1001.505, 774.452 1001.376, 776.081 993.500 C 776.991 989.100, 778.075 984.696, 778.489 983.713 C 779.364 981.637, 784.033 979, 786.834 979 C 788.512 979, 789.934 976.632, 789.986 973.750 C 790.010 972.453, 785.028 972.934, 781.950 974.526 C 779.306 975.893, 779 975.893, 779 974.526 C 779 973.497, 778.022 973, 776 973 C 774.350 973, 773 973.132, 773 973.292 M 810.209 974.668 C 800.504 979.451, 798.342 992.903, 806.213 999.526 C 809.139 1001.988, 809.965 1002.170, 816.678 1001.831 C 825.079 1001.407, 827.965 999.671, 826.091 996.170 C 825.040 994.207, 824.811 994.181, 821.313 995.643 C 817.176 997.371, 812.597 996.850, 809.816 994.333 C 805.804 990.702, 807.373 990, 819.500 990 L 831 990 831 985.223 C 831 979.820, 829.251 976.698, 824.989 974.494 C 821.220 972.545, 814.351 972.626, 810.209 974.668 M 855.500 974.357 C 844.696 979.356, 842.501 995.588, 851.967 1000.483 C 857.721 1003.458, 868.303 1001.955, 871.871 997.656 C 872.866 996.456, 872.708 995.909, 871.022 994.728 C 869.179 993.437, 868.508 993.494, 864.969 995.245 C 858.268 998.560, 853 995.814, 853 989.005 C 853 983.228, 856.913 979, 862.260 979 C 864.659 979, 867.098 979.684, 868.175 980.659 C 869.667 982.009, 870.473 982.106, 872.504 981.180 C 875.633 979.754, 875.630 978.941, 872.486 975.987 C 869.390 973.078, 860.174 972.194, 855.500 974.357 M 896.500 975.271 C 891.093 978.296, 887.696 984.826, 888.337 990.966 C 888.705 994.493, 889.556 996.122, 892.387 998.716 C 895.548 1001.612, 896.633 1002, 901.584 1002 C 912.347 1002, 918.087 996.945, 918.819 986.823 C 919.132 982.501, 918.805 980.351, 917.542 978.424 C 913.915 972.889, 903.537 971.334, 896.500 975.271 M 939.639 973.775 C 939.226 974.443, 934 1000.145, 934 1001.507 C 934 1001.778, 935.489 1002, 937.309 1002 L 940.618 1002 942.492 992.772 C 944.663 982.077, 946.862 979, 952.332 979 C 958.682 979, 959.005 981.068, 955.411 998.750 C 954.767 1001.918, 954.837 1002, 958.215 1002 L 961.680 1002 962.955 994.750 C 965.183 982.080, 967.334 979, 973.956 979 C 978.700 979, 979.567 981.966, 977.600 991.475 C 975.401 1002.111, 975.412 1002.184, 979.210 1001.813 C 982.405 1001.501, 982.428 1001.459, 984.249 992.500 C 985.255 987.550, 985.819 982.057, 985.502 980.293 C 984.276 973.473, 975.570 970.886, 967.572 974.963 C 963.746 976.914, 963.706 976.914, 961.226 974.963 C 958.419 972.755, 952.101 972.340, 948.732 974.143 C 947.129 975.001, 946.500 975.001, 946.214 974.143 C 945.789 972.866, 940.388 972.564, 939.639 973.775 M 1007.639 973.775 C 1007.226 974.443, 1002 1000.145, 1002 1001.507 C 1002 1001.778, 1003.519 1002, 1005.376 1002 L 1008.752 1002 1010.541 992.790 C 1012.617 982.100, 1014.818 979, 1020.332 979 C 1026.682 979, 1027.005 981.068, 1023.411 998.750 C 1022.767 1001.918, 1022.837 1002, 1026.215 1002 L 1029.680 1002 1030.955 994.750 C 1033.183 982.080, 1035.334 979, 1041.956 979 C 1046.700 979, 1047.567 981.966, 1045.600 991.475 C 1043.401 1002.111, 1043.412 1002.184, 1047.210 1001.813 C 1050.405 1001.501, 1050.428 1001.459, 1052.249 992.500 C 1053.255 987.550, 1053.819 982.057, 1053.502 980.293 C 1052.276 973.473, 1043.570 970.886, 1035.572 974.963 C 1031.746 976.914, 1031.706 976.914, 1029.226 974.963 C 1026.419 972.755, 1020.101 972.340, 1016.732 974.143 C 1015.129 975.001, 1014.500 975.001, 1014.214 974.143 C 1013.789 972.866, 1008.388 972.564, 1007.639 973.775 M 1079.500 974.403 C 1075.740 976.062, 1073.505 978.547, 1071.538 983.254 C 1068.681 990.092, 1070.478 997.079, 1075.920 1000.294 C 1079.572 1002.451, 1089.034 1002.551, 1093.050 1000.474 C 1096.348 998.769, 1096.514 998.261, 1094.601 995.740 C 1093.383 994.136, 1093.012 994.113, 1090.383 995.484 C 1085.828 997.860, 1080.031 996.994, 1077.765 993.600 C 1075.729 990.550, 1077.064 990.064, 1088.250 989.783 L 1099.500 989.500 1099.807 985.810 C 1100.195 981.136, 1097.810 976.470, 1094.033 974.517 C 1090.455 972.667, 1083.555 972.613, 1079.500 974.403 M 1119.075 978.250 C 1118.488 981.138, 1117.164 987.663, 1116.133 992.750 L 1114.259 1002 1117.562 1002 C 1121.239 1002, 1120.975 1002.502, 1123.477 990.773 C 1125.334 982.071, 1127.931 979, 1133.435 979 C 1139.942 979, 1140.429 982.327, 1136.473 999.750 C 1136.020 1001.746, 1136.350 1002, 1139.398 1002 C 1142.730 1002, 1142.869 1001.841, 1143.988 996.750 C 1145.677 989.067, 1146.352 981.540, 1145.616 978.607 C 1144.374 973.658, 1134.793 971.294, 1128.750 974.447 C 1126.359 975.694, 1126 975.693, 1126 974.441 C 1126 973.514, 1124.954 973, 1123.071 973 C 1120.340 973, 1120.070 973.354, 1119.075 978.250 M 1218.859 975.158 C 1213.872 978.049, 1211 983.468, 1211 989.986 C 1211 994.608, 1211.396 995.596, 1214.489 998.689 C 1217.806 1002.006, 1218.263 1002.159, 1223.739 1001.779 C 1226.908 1001.559, 1230.361 1000.992, 1231.414 1000.520 C 1232.782 999.905, 1233.122 999.994, 1232.605 1000.830 C 1232.105 1001.640, 1232.978 1002, 1235.441 1002 C 1237.398 1002, 1239.002 1001.888, 1239.005 1001.750 C 1239.008 1001.612, 1240.133 995.669, 1241.505 988.542 C 1242.877 981.416, 1244 975.003, 1244 974.292 C 1244 973.514, 1242.769 973, 1240.906 973 C 1238.662 973, 1237.670 973.545, 1237.294 974.984 C 1236.776 976.963, 1236.768 976.963, 1234.253 974.984 C 1230.833 972.294, 1223.657 972.375, 1218.859 975.158 M 1298 973.292 C 1298 973.453, 1296.877 979.416, 1295.505 986.542 C 1294.133 993.669, 1293.008 1000.091, 1293.005 1000.813 C 1293.002 1001.691, 1294.065 1002.023, 1296.209 1001.813 L 1299.418 1001.500 1301.577 990.500 C 1305.438 970.826, 1305.450 973, 1301.475 973 C 1299.564 973, 1298 973.132, 1298 973.292 M 1327.556 975.267 C 1322.224 978.287, 1319.611 983.017, 1319.549 989.761 C 1319.504 994.734, 1319.788 995.414, 1323.235 998.575 C 1326.561 1001.625, 1327.586 1002, 1332.584 1002 C 1343.335 1002, 1350.076 995.947, 1350.151 986.228 C 1350.173 983.476, 1349.669 980.250, 1349.031 979.058 C 1345.794 973.009, 1334.929 971.091, 1327.556 975.267 M 1370.523 974.250 C 1370.295 974.938, 1369.148 980.450, 1367.975 986.500 C 1366.802 992.550, 1365.604 998.513, 1365.313 999.750 C 1364.841 1001.754, 1365.164 1002, 1368.268 1002 L 1371.752 1002 1373.541 992.790 C 1375.692 981.715, 1377.747 979, 1383.976 979 C 1389.805 979, 1390.688 981.382, 1388.600 991.475 C 1386.430 1001.972, 1386.434 1002, 1390.306 1002 L 1393.612 1002 1395.306 993.164 C 1397.632 981.033, 1397.512 979.358, 1394.077 975.923 C 1390.882 972.728, 1385.694 972.025, 1380.336 974.062 C 1378.364 974.812, 1377.437 974.812, 1377.187 974.062 C 1376.691 972.572, 1371.026 972.731, 1370.523 974.250 M 1420.001 974.752 C 1415.663 976.919, 1413.514 981.017, 1414.739 984.785 C 1415.474 987.045, 1416.826 987.890, 1422.811 989.830 C 1430.172 992.215, 1431.712 994.013, 1428.066 995.965 C 1425.368 997.409, 1420.547 997.255, 1416.583 995.599 C 1413.360 994.253, 1413.186 994.296, 1412.078 996.728 C 1411.444 998.120, 1411.054 999.364, 1411.213 999.494 C 1413.262 1001.172, 1417.110 1002, 1422.858 1002 C 1428.851 1002, 1430.269 1001.644, 1432.814 999.503 C 1438.909 994.374, 1437.474 988.013, 1429.754 985.941 C 1422.892 984.099, 1421 983.138, 1421 981.497 C 1421 978.869, 1425.868 977.671, 1431.427 978.930 C 1436.485 980.076, 1437.946 979.474, 1437.985 976.225 C 1438.025 972.881, 1425.756 971.876, 1420.001 974.752 M 1479.010 973.750 C 1479.015 974.163, 1480.140 980.532, 1481.510 987.904 C 1482.879 995.277, 1484 1001.464, 1484 1001.654 C 1484 1001.844, 1485.546 1002, 1487.436 1002 C 1490.737 1002, 1491.091 1001.616, 1496.389 992.295 C 1499.638 986.578, 1502.106 983.187, 1502.394 984.045 C 1502.662 984.845, 1503.376 988.200, 1503.980 991.500 C 1506.004 1002.554, 1505.716 1002, 1509.432 1002 C 1512.720 1002, 1513.018 1001.652, 1519.042 990.750 C 1522.461 984.563, 1526.137 978.038, 1527.211 976.250 L 1529.163 973 1525.822 973 C 1522.612 973, 1522.248 973.420, 1516.508 983.750 L 1510.534 994.500 1508.597 983.699 L 1506.660 972.899 1503.615 973.199 C 1500.899 973.468, 1499.980 974.552, 1495.104 983.250 C 1492.098 988.612, 1489.328 993, 1488.948 993 C 1488.568 993, 1487.945 990.638, 1487.563 987.750 C 1487.181 984.862, 1486.411 980.362, 1485.851 977.750 C 1484.920 973.401, 1484.588 973, 1481.917 973 C 1480.313 973, 1479.004 973.337, 1479.010 973.750 M 1544 973.292 C 1544 973.453, 1542.877 979.416, 1541.505 986.542 C 1540.133 993.669, 1539.008 1000.091, 1539.005 1000.813 C 1539.002 1001.691, 1540.065 1002.023, 1542.209 1001.813 L 1545.418 1001.500 1547.577 990.500 C 1551.438 970.826, 1551.450 973, 1547.475 973 C 1545.564 973, 1544 973.132, 1544 973.292 M 157.500 979.155 C 155.296 980.360, 153 982.930, 153 984.191 C 153 984.636, 156.600 985, 161 985 C 169.893 985, 171.155 983.841, 166.365 980.073 C 163.459 977.787, 160.551 977.486, 157.500 979.155 M 311 978.669 C 309.017 979.443, 305 983.129, 305 984.174 C 305 984.628, 308.600 985, 313 985 C 321.361 985, 322.439 984.314, 319.750 980.705 C 318.395 978.886, 313.414 977.727, 311 978.669 M 661.500 979.155 C 659.296 980.360, 657 982.930, 657 984.191 C 657 984.636, 660.600 985, 665 985 C 673.893 985, 675.155 983.841, 670.365 980.073 C 667.459 977.787, 664.551 977.486, 661.500 979.155 M 813.500 979.155 C 811.296 980.360, 809 982.930, 809 984.191 C 809 984.636, 812.600 985, 817 985 C 822.742 985, 824.996 984.647, 824.985 983.750 C 824.931 979.401, 818.069 976.656, 813.500 979.155 M 1081.250 979.989 C 1075.488 983.502, 1076.909 985, 1086 985 C 1094.893 985, 1096.155 983.841, 1091.365 980.073 C 1088.069 977.480, 1085.402 977.458, 1081.250 979.989 M 261.746 981.527 C 256.910 986.363, 258.089 995.202, 263.736 996.442 C 272.133 998.286, 279.280 988.127, 274.443 981.223 C 272.141 977.935, 265.170 978.102, 261.746 981.527 M 425.252 980.536 C 422.249 982.639, 420.529 988.671, 421.905 992.268 C 423.133 995.476, 427.171 997.341, 431.048 996.489 C 437.506 995.071, 441.345 985.345, 437.116 981.116 C 434.567 978.567, 428.488 978.270, 425.252 980.536 M 518.495 981.414 C 513.689 986.220, 514.131 993.337, 519.391 995.859 C 525.764 998.913, 533.775 992.332, 532.604 985.003 C 531.911 980.663, 529.739 979, 524.763 979 C 522.022 979, 520.212 979.697, 518.495 981.414 M 703.589 982.077 C 701.821 984.178, 701.005 986.318, 701.015 988.827 C 701.033 993.098, 701.651 994.254, 704.809 995.917 C 712.493 999.965, 721.555 988.520, 716.443 981.223 C 715.240 979.504, 713.898 979, 710.532 979 C 706.897 979, 705.750 979.509, 703.589 982.077 M 899.750 980.080 C 897.512 981.383, 895 986.222, 895 989.228 C 895 992.605, 897.566 995.746, 900.928 996.484 C 909.308 998.325, 916.363 986.505, 910.427 980.570 C 908.664 978.806, 902.428 978.520, 899.750 980.080 M 1172.746 981.527 C 1167.910 986.363, 1169.089 995.202, 1174.736 996.442 C 1183.133 998.286, 1190.280 988.127, 1185.443 981.223 C 1183.141 977.935, 1176.170 978.102, 1172.746 981.527 M 1220.589 982.077 C 1218.821 984.178, 1218.005 986.318, 1218.015 988.827 C 1218.033 993.098, 1218.651 994.254, 1221.809 995.917 C 1227.360 998.842, 1235 993.144, 1235 986.078 C 1235 981.202, 1232.592 979, 1227.260 979 C 1223.929 979, 1222.701 979.566, 1220.589 982.077 M 1330.750 980.080 C 1329.787 980.641, 1328.325 982.405, 1327.500 984 C 1324.078 990.618, 1327.036 996.455, 1333.813 996.455 C 1338.553 996.455, 1341.432 994.250, 1343.035 989.395 C 1345.025 983.364, 1342.126 978.981, 1336.179 979.030 C 1334.155 979.047, 1331.712 979.519, 1330.750 980.080" stroke="none" fill="#5484d4" fill-rule="evenodd"/></svg>