<svg xmlns="http://www.w3.org/2000/svg" width="795" height="708" viewBox="0 0 795 708" version="1.1"><path d="M 385 80.699 C 320.739 85.697, 258.568 114.467, 212.518 160.518 C 175.144 197.892, 148.536 246.805, 137.917 297.656 C 132.374 324.201, 132.634 316.364, 132.267 467.955 L 131.928 608.410 134.971 614.592 C 136.714 618.133, 139.506 621.911, 141.507 623.438 C 149.384 629.445, 139.089 629.089, 294.288 628.734 C 448.770 628.381, 438.802 628.720, 465.823 622.887 C 503.671 614.716, 539.932 597.961, 572.500 573.594 C 588.269 561.797, 613.797 536.269, 625.594 520.500 C 653.736 482.885, 671.390 441.047, 678.550 395 C 680.735 380.947, 681.612 342.547, 680.081 327.932 C 674.431 273.966, 654.100 224.256, 620.397 182 C 611.782 171.199, 590.046 149.487, 579 140.649 C 529.193 100.800, 468.196 79.543, 405.500 80.185 C 396.700 80.276, 387.475 80.507, 385 80.699 M 516.402 275.486 C 497.992 279.491, 484.434 294.287, 482.027 313 C 480.712 323.218, 480.731 492.353, 482.047 501.500 C 484.808 520.679, 499.197 535.516, 518.495 539.084 C 541.436 543.325, 564.576 526.972, 568.925 503.447 C 570.367 495.649, 570.416 318.469, 568.979 310.891 C 567.491 303.043, 562.804 293.774, 557.406 288.002 C 551.734 281.939, 541.106 276.385, 532.500 274.986 C 525.134 273.790, 524.043 273.823, 516.402 275.486 M 373.754 364.084 C 363.031 366.612, 351.113 375.794, 345.783 385.633 C 340.193 395.953, 340 398.125, 340 450.574 C 340 478.911, 340.417 500.944, 341.014 504.114 C 342.562 512.336, 346.736 519.876, 353.431 526.544 C 375.139 548.164, 410.588 542.108, 424.093 514.472 L 427.500 507.500 427.500 451.500 L 427.500 395.500 424.299 388.741 C 420.518 380.760, 412.939 372.373, 406.186 368.698 C 396.849 363.616, 383.684 361.743, 373.754 364.084 M 236.252 452.016 C 222.024 454.091, 210.107 463.028, 203.309 476.721 C 200.175 483.035, 199.665 485.109, 199.252 493.221 C 198.731 503.479, 200.647 511.312, 205.596 519.152 C 214.810 533.749, 233.333 542.048, 250.034 539.063 C 284.706 532.867, 299.066 491.297, 275.309 465.899 C 265.040 454.921, 250.871 449.884, 236.252 452.016" stroke="none" fill="#fbfbfb" fill-rule="evenodd"/><path d="M 0 354.001 L 0 708.002 397.750 707.751 L 795.500 707.500 795.751 353.750 L 796.003 0 398.001 0 L 0 0 0 354.001 M 0.494 354.500 C 0.494 549.200, 0.609 628.999, 0.750 531.831 C 0.891 434.663, 0.891 275.363, 0.750 177.831 C 0.609 80.299, 0.494 159.800, 0.494 354.500 M 385 80.699 C 320.739 85.697, 258.568 114.467, 212.518 160.518 C 175.144 197.892, 148.536 246.805, 137.917 297.656 C 132.374 324.201, 132.634 316.364, 132.267 467.955 L 131.928 608.410 134.971 614.592 C 136.714 618.133, 139.506 621.911, 141.507 623.438 C 149.384 629.445, 139.089 629.089, 294.288 628.734 C 448.770 628.381, 438.802 628.720, 465.823 622.887 C 503.671 614.716, 539.932 597.961, 572.500 573.594 C 588.269 561.797, 613.797 536.269, 625.594 520.500 C 653.736 482.885, 671.390 441.047, 678.550 395 C 680.735 380.947, 681.612 342.547, 680.081 327.932 C 674.431 273.966, 654.100 224.256, 620.397 182 C 611.782 171.199, 590.046 149.487, 579 140.649 C 529.193 100.800, 468.196 79.543, 405.500 80.185 C 396.700 80.276, 387.475 80.507, 385 80.699 M 516.402 275.486 C 497.992 279.491, 484.434 294.287, 482.027 313 C 480.712 323.218, 480.731 492.353, 482.047 501.500 C 484.808 520.679, 499.197 535.516, 518.495 539.084 C 541.436 543.325, 564.576 526.972, 568.925 503.447 C 570.367 495.649, 570.416 318.469, 568.979 310.891 C 567.491 303.043, 562.804 293.774, 557.406 288.002 C 551.734 281.939, 541.106 276.385, 532.500 274.986 C 525.134 273.790, 524.043 273.823, 516.402 275.486 M 373.754 364.084 C 363.031 366.612, 351.113 375.794, 345.783 385.633 C 340.193 395.953, 340 398.125, 340 450.574 C 340 478.911, 340.417 500.944, 341.014 504.114 C 342.562 512.336, 346.736 519.876, 353.431 526.544 C 375.139 548.164, 410.588 542.108, 424.093 514.472 L 427.500 507.500 427.500 451.500 L 427.500 395.500 424.299 388.741 C 420.518 380.760, 412.939 372.373, 406.186 368.698 C 396.849 363.616, 383.684 361.743, 373.754 364.084 M 236.252 452.016 C 222.024 454.091, 210.107 463.028, 203.309 476.721 C 200.175 483.035, 199.665 485.109, 199.252 493.221 C 198.731 503.479, 200.647 511.312, 205.596 519.152 C 214.810 533.749, 233.333 542.048, 250.034 539.063 C 284.706 532.867, 299.066 491.297, 275.309 465.899 C 265.040 454.921, 250.871 449.884, 236.252 452.016" stroke="none" fill="#5484d4" fill-rule="evenodd"/></svg>